<?xml version="1.0" standalone="no"?>
<!DOCTYPE svg PUBLIC "-//W3C//DTD SVG 20010904//EN"
 "http://www.w3.org/TR/2001/REC-SVG-20010904/DTD/svg10.dtd">
<svg version="1.0" xmlns="http://www.w3.org/2000/svg"
 width="228.000000pt" height="300.000000pt" viewBox="0 0 228.000000 300.000000"
 preserveAspectRatio="xMidYMid meet">

<g transform="translate(0.000000,300.000000) scale(0.100000,-0.100000)"
fill="#000000" stroke="none">
<path d="M1099 2883 l-34 -98 -115 -5 -115 -5 92 -69 c55 -42 89 -74 86 -82
-5 -14 -56 -27 -110 -28 -19 -1 -28 -5 -23 -11 15 -18 23 -82 11 -89 -6 -4
-22 5 -36 20 -14 15 -31 24 -39 21 -22 -9 -39 16 -23 33 6 8 2 6 -11 -5 -20
-17 -26 -17 -45 -5 -20 12 -21 12 -8 -4 7 -9 16 -34 18 -56 4 -33 2 -40 -12
-40 -9 0 -26 10 -36 23 l-20 22 17 -27 c9 -16 22 -28 29 -28 7 0 15 -7 19 -15
4 -12 -3 -15 -29 -15 -27 0 -40 -8 -68 -40 -19 -22 -36 -40 -39 -40 -3 0 0 16
7 36 8 24 9 49 4 73 -14 58 -12 67 9 48 13 -12 21 -13 32 -6 13 9 13 10 -1 6
-28 -9 -41 14 -22 37 10 12 4 9 -12 -6 -24 -23 -28 -34 -26 -72 2 -39 -1 -45
-21 -49 -20 -4 -19 -4 5 -6 35 -1 27 -17 -18 -35 -24 -10 -39 -27 -51 -53 -18
-43 -31 -29 -15 18 12 35 3 65 -28 94 l-22 19 11 -28 c13 -36 6 -146 -12 -178
-32 -56 -51 -70 -62 -42 -3 8 -2 13 3 10 4 -3 11 21 14 52 2 32 15 78 27 101
12 24 20 45 18 47 -2 1 -22 -8 -45 -22 -32 -18 -45 -35 -59 -72 -9 -26 -27
-57 -40 -69 l-23 -21 20 -26 c11 -14 17 -30 14 -36 -3 -5 -1 -10 4 -10 19 0
12 -21 -18 -48 -20 -19 -30 -40 -34 -71 -3 -26 -12 -48 -21 -53 -9 -5 -14 -13
-11 -17 2 -5 -3 -15 -13 -22 -16 -13 -16 -13 -2 6 14 18 14 19 -2 7 -10 -8
-23 -42 -30 -75 l-12 -62 -9 50 c-5 32 -18 60 -35 79 -25 26 -25 28 -6 22 15
-5 24 -2 28 9 4 12 15 14 46 9 l40 -7 0 47 c0 38 -6 55 -31 86 l-31 39 22 33
c13 18 30 39 38 46 10 7 11 12 4 12 -6 0 -24 -18 -38 -40 -15 -22 -31 -40 -36
-40 -5 0 0 -12 11 -26 26 -33 26 -39 1 -64 -13 -13 -16 -20 -7 -20 14 0 57
-41 57 -54 0 -5 -15 -5 -34 -2 -23 5 -37 2 -46 -9 -9 -11 -17 -12 -31 -4 -15
7 -19 6 -19 -5 0 -8 4 -17 10 -21 6 -4 6 -15 0 -30 -5 -14 -7 -25 -5 -25 3 0
-4 -9 -14 -19 -24 -24 -36 -68 -47 -178 -8 -71 -7 -83 6 -84 55 -3 72 -15 46
-35 -16 -11 -17 -14 -4 -14 9 0 18 7 22 15 3 8 11 15 18 15 9 0 12 -15 10 -55
-3 -39 1 -63 12 -81 25 -36 9 -51 -23 -21 -14 14 -43 29 -63 32 l-38 7 0 -48
c0 -52 12 -84 24 -65 4 6 23 11 43 11 28 0 34 -3 29 -16 -3 -9 -6 -18 -6 -20
0 -2 -6 -4 -14 -4 -8 0 -17 -4 -20 -9 -4 -5 3 -7 15 -4 11 3 23 12 26 19 7 19
29 18 37 -2 3 -9 6 -30 6 -47 0 -23 13 -48 45 -87 25 -30 45 -62 45 -70 0 -8
-6 -4 -13 10 -17 34 -94 90 -123 90 -14 0 -34 5 -45 11 -20 10 -20 11 -2 25
17 14 17 14 -3 5 -12 -6 -25 -7 -29 -3 -4 4 -2 -3 4 -15 6 -13 19 -61 27 -108
9 -47 20 -82 25 -79 9 5 11 -1 13 -36 1 -8 8 -15 16 -15 8 0 15 -8 15 -17 0
-9 7 -24 16 -35 8 -10 31 -42 49 -72 34 -54 34 -54 43 -27 5 14 14 26 20 26 7
0 22 3 35 6 19 5 21 3 16 -12 -4 -11 -13 -26 -20 -34 -21 -25 -11 -76 20 -109
l29 -30 25 24 c40 40 50 33 47 -34 -3 -55 -1 -61 23 -77 l25 -17 -26 -19 c-32
-23 -34 -46 -11 -148 16 -70 16 -75 -5 -151 -23 -84 -20 -123 9 -139 25 -13
40 -12 17 1 -34 20 -37 52 -15 136 21 76 21 80 5 159 -21 100 -21 109 -1 128
23 23 44 20 100 -16 55 -35 114 -39 148 -10 17 16 15 17 -46 23 -35 3 -79 13
-97 22 -19 10 -43 15 -53 11 -23 -7 -37 24 -17 37 8 5 31 8 52 7 20 -1 41 2
46 8 15 15 -15 74 -37 74 -25 0 -75 39 -51 40 9 0 19 9 22 20 3 13 14 20 29
20 12 0 32 7 42 15 11 8 15 15 9 15 -7 0 -15 -4 -18 -10 -3 -5 -17 -10 -30
-10 -13 0 -30 -8 -37 -18 -27 -38 -45 -33 -66 19 -12 27 -26 49 -32 49 -7 0
-4 -14 9 -36 27 -45 27 -45 -8 -38 -17 4 -41 0 -59 -10 -37 -19 -62 -22 -45
-5 9 9 9 17 0 31 -10 16 -9 22 5 32 10 7 18 20 18 28 0 29 13 27 29 -4 21 -41
41 -48 37 -13 -2 14 -8 31 -14 37 -7 7 -12 19 -12 27 0 8 -3 11 -7 8 -3 -4
-12 -2 -19 4 -9 8 -23 7 -48 -2 -26 -9 -40 -10 -58 -1 -21 10 -21 10 8 5 17
-3 41 0 53 7 22 11 21 13 -26 43 -57 37 -200 174 -191 182 10 10 89 -15 95
-30 3 -10 13 -13 27 -9 15 3 28 -3 44 -20 12 -15 28 -26 35 -26 25 0 47 -36
47 -77 0 -43 23 -76 33 -49 3 8 2 16 -4 18 -5 2 -11 18 -14 36 -2 19 -12 45
-21 60 -12 19 -19 55 -22 124 -4 88 -6 96 -19 81 -13 -16 -14 -15 -1 6 8 14
20 27 26 29 12 4 42 -48 42 -73 0 -9 7 -24 16 -32 10 -10 14 -27 12 -45 -3
-16 -1 -31 4 -34 4 -3 8 -20 9 -37 0 -18 3 -26 6 -19 4 10 9 8 20 -7 8 -12 11
-26 8 -31 -3 -6 1 -10 10 -10 22 0 58 -62 42 -72 -8 -5 -6 -8 6 -8 10 0 42
-23 72 -51 52 -49 53 -51 43 -87 -23 -84 8 -180 54 -166 10 3 29 -7 48 -26 38
-38 53 -40 19 -3 -34 37 -54 71 -68 115 -19 57 -34 47 -29 -17 3 -30 1 -52 -4
-49 -9 6 -11 78 -2 123 7 33 22 39 43 19 6 -7 15 -13 19 -14 4 0 45 -19 92
-42 130 -64 221 -85 370 -85 144 0 237 21 357 78 404 191 590 651 431 1065
-99 257 -328 456 -595 516 -38 8 -81 18 -98 23 -16 4 -42 4 -56 1 -24 -5 -25
-6 -13 -35 7 -16 13 -23 14 -14 0 8 6 24 14 34 12 17 13 16 13 -11 0 -16 3
-37 7 -46 5 -11 1 -23 -13 -37 -20 -20 -20 -20 0 -26 29 -9 24 -28 -6 -21 -21
5 -25 3 -25 -17 0 -13 9 -32 20 -42 21 -19 28 -41 9 -29 -8 5 -10 -13 -5 -62
32 -356 29 -439 -16 -472 -15 -11 -18 -28 -18 -108 0 -87 -1 -94 -20 -94 -19
0 -20 7 -20 150 0 125 -3 152 -15 156 -12 5 -10 12 10 36 15 18 25 42 25 61 0
18 9 43 20 57 37 47 16 181 -32 212 -10 5 -7 12 10 23 12 9 22 25 22 36 0 11
4 17 10 14 6 -3 7 1 4 10 -6 14 -8 14 -19 -2 -11 -15 -15 -16 -31 -3 -17 13
-17 12 1 -8 l19 -24 -24 -18 -25 -19 -3 29 c-2 17 -8 30 -14 30 -6 0 -2 10 10
23 12 13 22 33 22 45 0 19 -4 21 -25 16 -30 -8 -34 12 -4 21 l21 7 -22 20
c-14 13 -19 26 -14 37 4 9 7 29 7 45 0 27 1 28 13 11 8 -10 14 -26 14 -34 1
-9 7 -2 14 14 12 29 11 30 -13 35 -14 3 -39 3 -56 -1 -16 -5 -60 -15 -98 -23
-37 -8 -95 -27 -130 -41 -34 -14 -70 -28 -81 -30 -10 -2 -23 -11 -30 -18 -6
-8 -27 -24 -46 -37 -168 -114 -297 -303 -345 -510 -8 -36 -15 -82 -15 -103 l0
-37 -25 16 c-15 10 -25 12 -25 5 0 -6 7 -11 15 -11 8 0 15 -4 15 -8 0 -15 -24
-32 -45 -32 -23 0 -55 -28 -55 -48 0 -7 -5 -12 -11 -12 -7 0 -8 9 -3 28 5 15
7 51 6 80 -2 40 1 52 12 52 8 0 17 -4 20 -9 3 -5 17 -11 31 -13 13 -3 22 -1
19 3 -3 5 -13 9 -23 9 -9 0 -22 5 -29 12 -15 15 -16 74 -2 83 6 3 10 16 10 28
0 29 50 115 89 151 29 28 31 28 31 9 0 -12 -5 -34 -10 -49 -6 -15 -8 -29 -6
-32 3 -3 10 8 16 24 6 16 23 41 37 56 21 22 22 26 7 25 -14 -2 -19 5 -19 27
-1 16 -6 31 -13 34 -7 2 -17 12 -22 22 -8 16 -5 18 25 18 20 0 43 -7 51 -16
12 -12 18 -13 24 -3 9 16 -10 72 -23 64 -5 -3 -4 -10 2 -16 21 -21 10 -26 -23
-10 -27 12 -40 13 -65 5 -42 -15 -39 1 4 27 19 11 35 26 35 33 0 6 -6 3 -14
-8 -8 -10 -17 -17 -20 -14 -6 6 37 60 48 60 3 0 6 -6 6 -13 0 -7 9 -20 20 -30
26 -22 26 -12 0 20 -15 20 -17 29 -9 39 6 8 17 14 23 14 6 0 38 14 70 30 45
23 72 30 115 30 l56 -1 -24 -19 c-13 -11 -29 -20 -37 -20 -8 0 -14 -4 -14 -10
0 -5 -11 -10 -24 -10 -14 0 -28 -5 -32 -11 -3 -6 -15 -8 -26 -6 -18 5 -19 4
-4 -12 9 -10 16 -24 16 -32 0 -8 6 -5 15 8 8 11 39 37 68 56 58 39 87 67 68
67 -16 0 -14 30 3 36 7 3 16 23 20 45 3 21 10 39 14 39 20 -1 52 -47 52 -77 0
-15 1 -15 14 2 8 12 20 16 34 13 21 -6 47 13 35 25 -3 4 2 16 12 27 9 10 15
26 12 35 -10 24 3 48 19 35 20 -18 28 -68 13 -88 -12 -14 -10 -14 8 1 25 21
161 48 248 48 105 1 275 -32 275 -53 0 -7 17 4 38 24 43 42 72 58 104 59 21 0
20 2 -9 16 -31 15 -33 15 -63 -11 -17 -14 -42 -29 -56 -32 -27 -7 -94 3 -94
14 0 17 75 56 106 56 l33 0 -33 31 c-18 16 -40 45 -49 63 -15 31 -15 32 6 33
22 1 -12 11 -85 23 -20 4 -38 12 -41 20 -3 8 31 40 86 82 l92 69 -115 5 -115
5 -34 98 c-18 53 -37 97 -41 97 -4 0 -23 -44 -41 -97z m61 35 c7 -24 21 -66
32 -95 l19 -52 102 -3 102 -3 -81 -63 -82 -63 29 -92 c16 -51 29 -95 29 -99 0
-4 -38 19 -85 52 l-85 59 -85 -59 c-47 -33 -85 -56 -85 -52 0 4 13 49 29 100
l29 93 -81 62 -82 62 104 5 105 5 30 93 c17 50 33 92 37 92 3 0 12 -19 19 -42z
m-370 -388 c0 -6 10 -8 24 -4 19 4 26 1 31 -15 3 -12 13 -21 21 -21 8 0 14 -4
14 -10 0 -5 -10 -10 -23 -10 -13 0 -36 -13 -52 -30 -36 -38 -48 -38 -29 -2 10
21 11 37 4 63 -12 41 -12 39 0 39 6 0 10 -5 10 -10z m364 -88 c2 -4 0 -14 -5
-22 -8 -13 -10 -13 -18 0 -10 15 -6 30 9 30 5 0 11 -4 14 -8z m-317 -43 c0
-25 -5 -43 -13 -46 -8 -3 -14 -15 -14 -26 0 -18 -5 -16 -34 16 -20 22 -43 37
-57 37 -13 0 -31 5 -39 10 -11 7 3 10 46 10 48 0 65 4 79 20 26 29 32 25 32
-21z m-173 -78 c-4 -18 -13 -35 -20 -38 -8 -3 -14 -13 -15 -22 0 -9 -7 -1 -15
18 -9 20 -26 37 -44 44 -17 6 -30 15 -30 19 0 11 11 10 49 -3 25 -9 36 -8 54
4 28 19 29 17 21 -22z m-305 -91 c11 -24 11 -24 -3 -6 -9 11 -16 24 -16 30 0
12 5 7 19 -24z m455 -124 c-31 -55 -57 -175 -49 -224 12 -75 42 -126 116 -204
20 -20 25 -34 21 -54 -3 -19 -1 -25 7 -20 6 4 9 11 6 16 -11 17 8 40 33 40 40
0 62 -27 62 -76 0 -33 -18 -80 -75 -200 -41 -86 -75 -167 -75 -179 0 -27 32
-57 53 -49 8 3 27 24 42 46 22 32 31 39 51 35 13 -2 24 -4 24 -3 1 9 30 415
30 424 0 6 9 12 20 12 19 0 20 -7 20 -155 l0 -155 40 0 39 0 3 103 c3 95 4
102 24 105 20 3 22 -2 28 -115 3 -65 9 -141 12 -169 5 -47 8 -50 29 -46 19 3
29 -4 50 -36 15 -22 34 -43 42 -46 21 -8 53 22 53 49 0 13 -34 93 -75 180 -80
167 -92 220 -58 257 30 33 100 13 78 -22 -3 -5 0 -12 6 -15 7 -5 10 1 8 17 -3
17 10 41 41 79 25 30 47 56 50 59 11 10 39 86 45 122 8 49 -18 169 -49 224
-14 24 -23 44 -20 44 16 0 100 -93 120 -133 30 -59 41 -154 25 -226 -6 -30 -9
-56 -7 -59 9 -8 55 27 103 76 l45 47 -7 -50 c-9 -60 -36 -126 -71 -173 -46
-60 -29 -51 115 62 12 9 13 5 7 -29 -11 -55 -32 -93 -80 -144 l-41 -43 35 7
c19 4 52 16 73 27 l38 19 -17 -32 c-9 -18 -37 -53 -64 -80 l-47 -47 30 -6 c16
-3 42 -6 58 -6 16 0 29 -4 29 -9 0 -10 -53 -52 -95 -74 l-30 -15 49 -13 c46
-11 48 -13 30 -27 -10 -8 -39 -23 -64 -35 l-45 -20 45 -15 45 -15 -40 -18
c-22 -10 -56 -19 -75 -19 l-35 -1 35 -29 34 -30 -62 0 c-34 0 -62 -3 -62 -7 0
-3 7 -15 17 -25 15 -17 15 -18 -11 -18 -40 0 -86 24 -133 69 -47 44 -53 61
-23 61 15 0 20 -7 20 -25 0 -14 5 -25 11 -25 5 0 7 5 3 12 -4 7 -3 8 5 4 6 -4
8 -12 5 -18 -5 -7 -1 -9 9 -5 10 4 30 2 45 -4 22 -8 25 -8 15 2 -7 7 -13 21
-13 31 0 9 -9 22 -20 28 -16 9 -20 8 -20 -5 0 -19 -19 -20 -26 0 -4 8 -15 15
-26 15 -29 0 -56 17 -72 48 -12 20 -15 23 -16 9 0 -27 -33 -17 -40 13 -6 23
-7 21 -15 -15 l-9 -40 -6 60 c-5 56 -7 60 -32 63 l-28 3 0 -135 c0 -129 -1
-136 -20 -136 -19 0 -20 7 -20 136 l0 135 -27 -3 c-26 -3 -28 -7 -33 -63 l-6
-60 -9 40 c-8 36 -9 38 -15 15 -7 -30 -40 -40 -40 -13 -1 14 -4 11 -16 -9 -16
-31 -43 -48 -72 -48 -11 0 -22 -7 -26 -15 -7 -20 -26 -19 -26 0 0 13 -4 14
-20 5 -11 -6 -20 -19 -20 -28 0 -10 -6 -24 -12 -31 -11 -10 -8 -10 14 -2 15 6
35 8 45 4 10 -4 14 -2 9 5 -3 6 -1 14 5 18 8 4 9 3 5 -4 -4 -7 -2 -12 3 -12 6
0 11 11 11 25 0 18 5 25 20 25 30 0 24 -17 -22 -61 -48 -45 -94 -69 -134 -69
-26 0 -26 1 -11 18 10 10 17 22 17 25 0 4 -28 7 -62 7 l-62 0 34 30 35 29 -35
1 c-19 0 -53 9 -75 19 l-40 18 45 15 45 15 -45 20 c-25 12 -54 27 -64 35 -18
14 -16 16 30 27 l49 13 -30 15 c-42 22 -95 64 -95 74 0 5 13 9 29 9 16 0 42 3
58 6 l30 6 -47 47 c-27 27 -55 62 -64 80 l-17 32 38 -19 c21 -11 54 -23 73
-27 l35 -7 -41 43 c-48 51 -69 89 -80 144 -6 34 -5 38 7 29 98 -77 134 -103
137 -99 2 2 -8 19 -22 37 -35 47 -62 113 -71 173 l-7 50 45 -47 c48 -49 94
-84 103 -76 2 3 -1 29 -7 59 -16 72 -5 167 25 226 20 40 104 133 120 133 3 0
-6 -20 -20 -44z m329 -111 c21 -44 22 -71 2 -79 -8 -3 -15 -15 -15 -26 0 -11
7 -20 15 -20 21 0 19 -17 -5 -37 -14 -12 -20 -30 -20 -59 0 -34 -5 -47 -27
-63 -14 -12 -28 -20 -29 -18 -2 2 1 61 6 133 5 71 10 146 10 167 0 32 3 37 23
37 17 0 28 -10 40 -35z m-833 4 c0 -6 9 -18 21 -27 26 -22 16 -50 -20 -57 -14
-3 -44 -15 -65 -25 -53 -27 -59 -15 -13 23 20 18 37 37 37 44 0 21 23 63 31
57 5 -3 9 -10 9 -15z m-165 -116 c9 -21 14 -46 11 -55 -2 -10 0 -21 6 -24 5
-3 7 -17 3 -31 -7 -31 3 -65 17 -57 8 5 9 1 4 -12 -5 -10 -11 -28 -14 -38 -8
-28 -41 -60 -46 -44 -23 74 -27 222 -7 296 3 10 13 -4 26 -35z m215 17 c0 -5
-2 -10 -4 -10 -3 0 -8 5 -11 10 -3 6 -1 10 4 10 6 0 11 -4 11 -10z m792 -12
c-7 -7 -12 -8 -12 -2 0 14 12 26 19 19 2 -3 -1 -11 -7 -17z m-906 -21 c-10 -7
-27 -24 -38 -38 -11 -13 -16 -17 -12 -9 11 24 46 60 58 60 5 0 2 -6 -8 -13z
m-155 -214 c13 -16 12 -17 -3 -4 -10 7 -18 15 -18 17 0 8 8 3 21 -13z m1139
-63 c0 -5 -4 -10 -10 -10 -5 0 -10 5 -10 10 0 6 5 10 10 10 6 0 10 -4 10 -10z
m-1073 -87 c-3 -10 -5 -2 -5 17 0 19 2 27 5 18 2 -10 2 -26 0 -35z m137 -23
c0 -34 3 -63 8 -66 4 -3 8 -11 8 -19 0 -17 -42 -14 -65 5 -13 11 -20 11 -40 0
-13 -7 -22 -17 -18 -23 3 -5 10 -2 15 7 11 20 32 21 48 1 7 -8 16 -13 20 -10
5 3 15 2 24 -1 12 -5 9 -11 -16 -28 -18 -12 -37 -35 -42 -51 -19 -65 -25 -72
-25 -32 -1 22 -11 53 -26 75 -30 46 -26 76 15 114 35 32 35 32 61 18 17 -9 18
-8 10 13 -9 22 2 57 17 57 4 0 7 -27 6 -60z m-147 -92 c-3 -8 -6 -5 -6 6 -1
11 2 17 5 13 3 -3 4 -12 1 -19z m163 -47 c0 -12 -20 -25 -27 -18 -7 7 6 27 18
27 5 0 9 -4 9 -9z m-50 -121 c-5 -22 -8 -27 -9 -13 -1 21 9 56 14 51 2 -2 0
-19 -5 -38z m850 -105 l0 -135 30 0 30 0 0 135 c0 113 2 135 15 135 13 0 15
-20 15 -120 0 -66 4 -120 9 -120 4 0 14 35 21 78 12 72 14 75 21 42 13 -56 20
-338 9 -345 -6 -3 -7 2 -4 12 5 16 4 16 -10 -1 -18 -22 -21 -40 -6 -31 6 4 5
-5 -2 -19 -6 -14 -16 -26 -21 -26 -5 0 -4 7 4 16 8 10 9 18 3 22 -6 4 -26 42
-45 84 -18 43 -36 78 -39 78 -3 0 -21 -35 -39 -78 -19 -42 -39 -80 -45 -84 -6
-4 -5 -12 3 -22 8 -9 9 -16 4 -16 -5 0 -15 12 -21 26 -7 14 -8 23 -2 19 15 -9
12 9 -6 31 -14 17 -15 17 -10 1 3 -10 2 -15 -4 -12 -11 7 -4 289 9 345 7 33 9
30 21 -42 7 -43 17 -78 21 -78 5 0 9 54 9 120 0 100 3 120 15 120 13 0 15 -22
15 -135z m-270 -35 c-18 -11 -24 -6 -16 16 5 14 9 15 19 5 9 -9 9 -14 -3 -21z
m619 1 c-3 -6 -10 -7 -18 -2 -7 5 -10 14 -6 21 9 14 29 -2 24 -19z m-1249
-127 c0 -3 -13 4 -30 16 -16 12 -30 24 -30 26 0 3 14 -4 30 -16 17 -12 30 -24
30 -26z m970 -146 c22 -48 26 -65 17 -73 -7 -5 -11 -21 -9 -34 2 -14 0 -21 -7
-17 -11 7 -10 33 2 52 6 11 -32 114 -43 114 -11 0 -49 -103 -43 -114 12 -19
13 -45 2 -52 -7 -4 -9 3 -7 17 2 13 -2 29 -9 34 -9 8 -5 25 17 73 16 34 34 62
40 62 6 0 24 -28 40 -62z m-20 -24 c10 -31 10 -39 -4 -52 -15 -15 -17 -15 -32
0 -14 13 -14 21 -4 52 6 20 15 36 20 36 5 0 14 -16 20 -36z m-682 -28 c10 -14
35 -33 56 -42 45 -22 46 -31 1 -26 -24 3 -42 -2 -61 -17 -37 -29 -41 -27 -39
22 4 99 9 106 43 63z m552 -58 c0 -4 -7 -8 -15 -8 -10 0 -15 10 -15 28 1 26 1
26 15 8 8 -11 15 -23 15 -28z m250 17 c0 -16 -6 -25 -15 -25 -18 0 -18 5 -5
31 14 26 20 24 20 -6z m-118 -17 c-2 -10 -12 -18 -22 -18 -10 0 -20 8 -22 18
-4 13 1 17 22 17 21 0 26 -4 22 -17z"/>
<path d="M750 1736 c0 -9 4 -14 10 -11 5 3 19 -9 30 -27 l20 -33 -1 45 c-1 25
-4 34 -6 22 l-5 -24 -24 23 c-21 19 -24 20 -24 5z"/>
<path d="M1471 1710 l-1 -45 20 33 c11 18 25 30 30 27 6 -3 10 2 10 11 0 15
-3 14 -24 -5 l-24 -23 -5 24 c-2 12 -5 3 -6 -22z"/>
<path d="M760 1707 c0 -5 5 -17 10 -28 14 -24 2 -24 -30 1 -14 11 -27 20 -30
20 -9 0 1 -70 11 -76 5 -3 6 9 2 27 l-6 32 45 -27 c53 -31 58 -32 58 -8 0 14
-2 14 -9 3 -7 -11 -14 -5 -30 25 -11 21 -20 35 -21 31z"/>
<path d="M1496 1673 c-14 -29 -20 -34 -27 -22 -7 11 -9 11 -9 -3 0 -24 5 -23
58 8 l45 27 -6 -32 c-4 -18 -3 -30 2 -27 10 6 20 76 11 76 -3 0 -16 -9 -30
-20 -33 -25 -43 -25 -30 1 7 11 10 23 8 25 -3 2 -12 -13 -22 -33z"/>
<path d="M670 1663 c0 -10 38 -73 44 -73 2 0 -5 18 -16 40 -19 38 -28 49 -28
33z"/>
<path d="M1583 1631 c-11 -22 -16 -38 -12 -35 12 7 41 65 36 70 -2 3 -13 -13
-24 -35z"/>
<path d="M942 1628 c-16 -16 -15 -28 1 -28 7 0 13 9 13 20 0 11 -1 20 -1 20
-1 0 -6 -5 -13 -12z"/>
<path d="M1324 1619 c0 -10 6 -19 13 -19 7 0 13 4 13 9 0 5 -6 13 -13 19 -10
8 -13 6 -13 -9z"/>
<path d="M976 1595 c5 -38 4 -39 -10 -21 -19 24 -20 10 -2 -23 l14 -25 6 30
c4 17 2 41 -3 55 -9 20 -10 18 -5 -16z"/>
<path d="M1296 1605 c-4 -14 -3 -37 0 -51 l7 -27 13 24 c18 33 17 47 -2 23
-14 -18 -15 -17 -9 19 7 42 1 50 -9 12z"/>
<path d="M741 1591 c9 -20 9 -23 -3 -18 -8 3 -21 1 -29 -4 -10 -6 -4 -9 19 -9
36 0 39 7 16 36 -14 18 -14 18 -3 -5z"/>
<path d="M1530 1591 c-15 -29 -13 -31 23 -31 22 0 28 3 18 9 -8 5 -21 7 -29 4
-12 -5 -12 -2 -3 15 7 12 9 22 7 22 -3 0 -10 -9 -16 -19z"/>
<path d="M900 1581 c0 -6 -7 -11 -15 -11 -18 0 -19 -14 -5 -41 8 -14 7 -19 -2
-20 -7 0 -3 -4 9 -9 15 -6 20 -15 16 -29 -7 -27 -17 -26 -36 2 -8 12 -18 19
-22 15 -7 -6 8 -22 49 -51 13 -10 16 -20 11 -36 l-7 -22 -24 24 c-13 13 -28
35 -33 48 -9 22 -9 22 -8 -8 1 -23 8 -34 22 -37 13 -4 16 -9 9 -13 -6 -5 -14
-15 -17 -23 -4 -10 -9 -5 -18 18 -8 17 -17 32 -22 32 -9 0 9 -37 30 -61 12
-14 12 -17 -2 -23 -9 -3 -22 -3 -28 1 -6 4 -1 -6 12 -22 l23 -30 -23 -3 c-16
-3 -31 5 -48 25 -23 26 -23 27 -8 2 15 -25 15 -27 -7 -39 l-23 -12 22 -21 c43
-44 51 -48 51 -27 0 10 -3 17 -7 15 -3 -2 -16 3 -28 12 -18 12 -20 17 -10 24
23 14 35 10 49 -17 14 -25 14 -25 54 53 52 103 69 146 57 138 -7 -4 -11 5 -11
22 1 26 2 26 14 10 11 -15 15 -15 19 -3 4 9 -2 17 -14 21 -20 7 -55 62 -45 72
9 9 57 -27 65 -49 7 -18 9 -19 14 -5 4 10 2 17 -3 17 -6 0 -10 4 -10 9 0 6
-11 22 -25 37 -14 15 -25 22 -25 15z m-17 -207 c3 -3 -4 -24 -15 -46 -15 -29
-23 -36 -29 -26 -13 19 -11 28 6 28 9 0 15 9 15 25 0 24 10 32 23 19z m-49
-119 c-4 -8 -10 -12 -15 -9 -14 8 -10 24 6 24 9 0 12 -6 9 -15z"/>
<path d="M1353 1564 c-13 -14 -23 -30 -23 -35 0 -5 -4 -9 -10 -9 -5 0 -7 -7
-3 -17 5 -14 7 -13 14 5 8 22 56 58 65 49 10 -10 -25 -65 -45 -72 -12 -4 -18
-12 -14 -21 4 -12 8 -12 19 3 12 16 13 16 14 -10 0 -17 -4 -26 -11 -22 -12 8
5 -35 57 -138 40 -78 40 -78 54 -53 14 27 26 31 49 17 10 -7 8 -12 -10 -24
-12 -9 -25 -14 -28 -12 -4 2 -7 -5 -7 -15 0 -21 8 -17 51 27 l22 21 -23 12
c-22 12 -22 14 -7 39 15 25 15 24 -8 -2 -17 -20 -32 -28 -48 -25 l-23 3 23 30
c13 16 18 26 12 22 -6 -4 -19 -4 -28 -1 -14 6 -14 9 -2 23 21 24 39 61 30 61
-5 0 -14 -15 -22 -32 -9 -23 -14 -28 -18 -18 -3 8 -11 18 -17 23 -7 4 -4 9 9
13 14 3 21 14 22 37 1 30 1 30 -8 8 -5 -13 -20 -35 -33 -48 l-24 -24 -7 22
c-5 16 -2 26 11 36 41 29 56 45 49 51 -4 4 -14 -3 -22 -15 -19 -28 -29 -29
-36 -2 -4 14 1 23 16 29 12 5 16 9 9 9 -9 1 -10 6 -2 20 14 27 13 41 -4 41 -8
0 -16 4 -18 10 -1 5 -13 -2 -25 -16z m67 -209 c0 -16 6 -25 15 -25 17 0 19 -9
6 -28 -6 -10 -14 -3 -29 26 -19 38 -20 52 0 52 4 0 8 -11 8 -25z m50 -94 c0
-17 -18 -21 -24 -6 -3 9 0 15 9 15 8 0 15 -4 15 -9z"/>
<path d="M680 1561 c5 -11 15 -23 20 -26 6 -4 8 -9 6 -13 -2 -4 8 -16 23 -27
l26 -19 -28 34 c-15 19 -30 43 -34 53 -3 9 -9 17 -15 17 -5 0 -4 -9 2 -19z"/>
<path d="M1587 1563 c-4 -10 -19 -34 -34 -53 l-28 -34 26 19 c15 11 25 23 23
27 -2 4 0 9 6 13 15 9 32 45 22 45 -6 0 -12 -8 -15 -17z"/>
<path d="M836 1515 c4 -8 11 -15 16 -15 6 0 5 6 -2 15 -7 8 -14 15 -16 15 -2
0 -1 -7 2 -15z"/>
<path d="M1430 1515 c-7 -9 -8 -15 -2 -15 5 0 12 7 16 15 3 8 4 15 2 15 -2 0
-9 -7 -16 -15z"/>
<path d="M674 1501 c19 -21 19 -21 -7 -21 -36 0 -34 -10 11 -55 31 -32 34 -37
14 -32 -12 3 -20 1 -16 -4 3 -5 -4 -9 -15 -9 -11 0 -22 -4 -25 -8 -6 -9 29
-42 44 -42 24 0 7 -20 -17 -21 -16 0 -22 -3 -14 -6 11 -4 8 -10 -9 -23 l-23
-18 21 -6 c12 -4 22 -12 22 -17 0 -5 9 -9 20 -9 27 0 25 -8 -6 -32 -25 -20
-25 -20 -4 -35 11 -8 30 -12 43 -10 19 4 18 4 -5 6 -39 2 -44 19 -13 43 l27
21 -42 22 -43 22 37 26 38 25 -37 25 -37 25 47 7 47 8 -43 43 -42 43 41 3 41
3 -37 24 c-34 22 -36 22 -18 2z"/>
<path d="M1580 1495 l-34 -25 44 0 44 0 -43 -44 -43 -43 47 -8 47 -7 -37 -25
-37 -25 38 -25 37 -26 -43 -22 -42 -22 27 -21 c31 -24 26 -41 -13 -43 -23 -2
-24 -2 -5 -6 13 -2 32 2 43 10 21 15 21 15 -4 35 -31 24 -33 32 -6 32 11 0 20
4 20 9 0 5 10 13 22 17 l21 6 -23 18 c-17 13 -20 19 -9 23 8 3 2 6 -13 6 -25
1 -42 21 -18 21 15 0 50 33 44 42 -3 4 -14 8 -25 8 -11 0 -18 4 -15 9 4 5 -4
7 -16 4 -20 -5 -17 0 15 32 44 45 46 55 10 55 -25 0 -26 0 -8 20 23 26 18 25
-25 -5z"/>
<path d="M795 1470 c10 -11 20 -20 23 -20 3 0 -3 9 -13 20 -10 11 -20 20 -23
20 -3 0 3 -9 13 -20z"/>
<path d="M1474 1468 l-19 -23 23 19 c21 18 27 26 19 26 -2 0 -12 -10 -23 -22z"/>
<path d="M615 1430 c3 -5 8 -10 11 -10 2 0 4 5 4 10 0 6 -5 10 -11 10 -5 0 -7
-4 -4 -10z"/>
<path d="M1650 1429 c0 -5 5 -7 10 -4 6 3 10 8 10 11 0 2 -4 4 -10 4 -5 0 -10
-5 -10 -11z"/>
<path d="M788 1373 c7 -3 16 -2 19 1 4 3 -2 6 -13 5 -11 0 -14 -3 -6 -6z"/>
<path d="M1478 1373 c7 -3 16 -2 19 1 4 3 -2 6 -13 5 -11 0 -14 -3 -6 -6z"/>
<path d="M620 1226 c0 -2 7 -7 16 -10 8 -3 12 -2 9 4 -6 10 -25 14 -25 6z"/>
<path d="M1635 1220 c-3 -6 1 -7 9 -4 18 7 21 14 7 14 -6 0 -13 -4 -16 -10z"/>
<path d="M731 1196 c-10 -12 -6 -17 23 -27 34 -12 34 -13 19 -38 l-15 -26 19
23 c13 16 25 21 38 17 15 -5 16 -4 6 3 -15 11 -6 36 10 27 5 -3 6 1 2 11 -5
15 -7 15 -15 0 -10 -18 -45 -21 -68 -6 -13 9 -13 11 0 20 8 5 10 10 4 10 -6 0
-17 -6 -23 -14z"/>
<path d="M1530 1200 c13 -9 13 -11 0 -20 -23 -15 -58 -12 -68 6 -8 15 -10 15
-15 0 -4 -10 -3 -14 2 -11 16 9 25 -16 10 -27 -10 -7 -9 -8 6 -3 13 4 25 -1
38 -17 l19 -23 -15 26 c-15 25 -15 26 19 38 29 10 33 15 23 27 -6 8 -17 14
-23 14 -6 0 -4 -5 4 -10z"/>
<path d="M840 1151 c0 -5 7 -12 16 -15 14 -5 15 -4 4 9 -14 17 -20 19 -20 6z"/>
<path d="M1420 1145 c-11 -13 -10 -14 4 -9 9 3 16 10 16 15 0 13 -6 11 -20 -6z"/>
<path d="M726 1123 c-15 -21 -16 -27 -5 -34 8 -5 19 -9 24 -9 6 1 2 5 -8 11
-18 10 -18 12 -1 30 9 11 15 21 13 23 -2 2 -12 -7 -23 -21z"/>
<path d="M1530 1143 c0 -6 7 -16 16 -24 14 -12 14 -14 -2 -26 -20 -14 -7 -18
15 -4 12 7 10 14 -8 36 -11 15 -21 23 -21 18z"/>
<path d="M770 1080 c0 -5 5 -10 10 -10 6 0 10 5 10 10 0 6 -4 10 -10 10 -5 0
-10 -4 -10 -10z"/>
<path d="M1490 1080 c0 -5 5 -10 10 -10 6 0 10 5 10 10 0 6 -4 10 -10 10 -5 0
-10 -4 -10 -10z"/>
<path d="M820 2590 c-9 -6 -10 -10 -3 -10 6 0 15 5 18 10 8 12 4 12 -15 0z"/>
<path d="M1490 2580 c0 -5 7 -10 15 -10 8 0 30 -14 49 -31 37 -32 59 -95 37
-108 -7 -4 3 -14 25 -25 20 -9 34 -19 31 -22 -3 -3 -19 1 -35 10 -29 15 -30
15 -42 -14 -7 -18 -28 -37 -53 -49 -31 -16 -37 -22 -24 -27 9 -3 14 -11 10
-18 -4 -6 12 6 35 26 53 48 132 64 132 27 0 -18 -53 -59 -76 -59 -13 0 -24 -4
-24 -10 0 -5 5 -10 11 -10 5 0 7 -5 3 -12 -8 -12 -1 -9 56 30 26 18 46 23 77
20 35 -2 39 -1 30 11 -10 12 -8 14 8 8 18 -7 18 -6 -2 10 -29 23 -45 69 -38
105 4 17 2 28 -4 28 -6 0 -21 12 -34 26 -22 26 -85 65 -73 45 13 -20 -21 -11
-40 10 -24 27 -74 53 -74 39z m164 -85 c33 -31 47 -67 40 -103 -5 -23 -1 -32
21 -46 15 -10 25 -20 22 -23 -5 -5 -87 46 -87 54 0 3 8 2 18 -1 9 -4 2 6 -16
21 -27 23 -35 38 -39 76 -6 54 2 58 41 22z"/>
<path d="M1441 2566 c52 -30 81 -103 37 -92 -13 3 -5 -3 17 -13 54 -26 60 -25
36 5 -12 15 -21 37 -21 50 0 25 -24 54 -45 54 -7 0 -22 3 -32 6 -10 3 -6 -2 8
-10z"/>
<path d="M665 2560 c-3 -6 1 -7 9 -4 18 7 21 14 7 14 -6 0 -13 -4 -16 -10z"/>
<path d="M530 2490 c-11 -8 -7 -9 15 -4 37 8 45 14 19 14 -10 0 -26 -5 -34
-10z"/>
<path d="M1745 2447 c39 -39 52 -79 38 -116 -8 -24 -3 -31 59 -89 37 -35 68
-69 68 -75 0 -6 -31 20 -69 57 l-70 69 -29 -31 c-24 -25 -38 -32 -68 -32 -36
0 -37 -1 -21 -17 15 -16 19 -15 60 5 50 25 64 26 103 12 l27 -11 -23 -24 c-18
-19 -34 -25 -67 -25 -25 0 -53 5 -65 11 -11 6 -22 8 -25 5 -3 -3 13 -12 35
-21 27 -11 39 -21 35 -30 -3 -10 6 -9 36 5 46 23 99 26 125 7 16 -12 16 -14
-4 -32 -14 -12 -36 -20 -60 -20 -31 0 -38 -3 -37 -18 1 -9 7 -15 14 -13 58 23
94 26 128 12 19 -8 35 -20 35 -25 0 -19 -43 -33 -87 -28 -35 4 -41 2 -32 -9 6
-7 8 -17 5 -22 -3 -5 8 -21 24 -37 15 -15 27 -32 24 -39 -3 -8 14 -10 54 -8
52 3 63 0 88 -22 25 -22 27 -27 14 -36 -15 -11 -73 -9 -100 4 -11 4 -16 1 -17
-14 -1 -11 2 -18 7 -15 19 12 104 -9 131 -32 16 -14 29 -23 29 -20 0 10 -39
115 -55 149 -18 37 -18 37 -48 21 -36 -18 -77 -12 -119 18 -23 17 -27 24 -16
30 23 15 107 10 136 -8 l27 -18 -29 48 c-15 27 -26 51 -23 54 5 5 36 -45 76
-122 18 -35 20 -37 21 -15 0 14 9 42 20 63 15 28 18 42 11 55 -9 15 -10 15
-11 -4 0 -12 -10 -34 -22 -49 l-21 -27 -13 23 c-20 35 -17 69 10 116 14 24 21
45 16 48 -4 3 -10 -1 -13 -7 -3 -8 -9 -3 -15 12 -10 24 -11 23 -11 -13 -1 -40
-15 -77 -30 -77 -5 0 -16 15 -25 34 -15 31 -15 39 -2 77 14 39 13 44 -4 66
l-18 23 5 -37 c3 -25 -1 -45 -10 -58 -15 -19 -15 -19 -36 5 -18 21 -21 34 -17
81 4 39 1 60 -7 67 -10 8 -12 2 -9 -26 1 -20 -2 -44 -8 -52 -9 -13 -14 -11
-36 14 -25 28 -26 35 -20 95 4 44 3 61 -3 51 -8 -12 -17 -7 -46 28 -20 23 -40
42 -45 42 -4 0 7 -15 25 -33z m234 -372 c0 -12 -46 41 -60 70 -6 11 6 2 25
-20 20 -22 36 -44 35 -50z"/>
<path d="M475 2450 c-6 -10 13 -15 49 -11 10 0 25 -4 32 -10 9 -8 14 -8 14 -1
0 13 -36 25 -50 17 -6 -4 -17 -2 -25 5 -9 7 -15 8 -20 0z"/>
<path d="M1922 2311 c13 -15 25 -27 26 -25 6 4 -32 53 -41 54 -5 0 2 -13 15
-29z"/>
<path d="M1099 2258 c4 -12 13 -24 19 -26 7 -2 7 5 -1 22 -15 32 -30 35 -18 4z"/>
<path d="M1163 2254 c-8 -17 -8 -24 -1 -22 13 5 31 48 20 48 -4 0 -12 -12 -19
-26z"/>
<path d="M2006 2225 c24 -39 24 -40 24 -28 0 6 -9 21 -21 34 l-20 24 17 -30z"/>
<path d="M230 2175 c-14 -8 -20 -14 -14 -15 5 0 19 7 30 15 24 18 16 19 -16 0z"/>
<path d="M280 2160 c6 -11 13 -20 16 -20 2 0 0 9 -6 20 -6 11 -13 20 -16 20
-2 0 0 -9 6 -20z"/>
<path d="M479 2073 c-13 -16 -12 -17 4 -4 9 7 17 15 17 17 0 8 -8 3 -21 -13z"/>
<path d="M449 2033 c-13 -16 -12 -17 4 -4 9 7 17 15 17 17 0 8 -8 3 -21 -13z"/>
<path d="M2135 2035 c5 -11 10 -40 13 -65 3 -35 -1 -51 -18 -73 -12 -15 -26
-25 -31 -22 -12 8 -10 -2 6 -45 12 -30 14 -32 14 -11 1 14 12 41 26 61 23 33
24 40 15 95 -5 32 -15 63 -21 69 -9 8 -10 6 -4 -9z"/>
<path d="M2194 1895 c6 -24 12 -42 14 -40 7 6 -9 85 -17 85 -4 0 -3 -20 3 -45z"/>
<path d="M2186 1816 c-8 -32 -45 -54 -57 -35 -11 18 -11 15 6 -51 9 -37 14
-46 14 -27 1 18 16 43 42 72 23 25 39 48 35 52 -3 3 -6 3 -6 -2 0 -4 -6 -2
-14 4 -11 9 -15 6 -20 -13z"/>
<path d="M298 1773 c-9 -10 -18 -27 -20 -38 -2 -11 -17 -29 -35 -40 -28 -18
-49 -52 -39 -63 2 -2 13 3 25 10 16 10 25 10 39 1 17 -10 18 -8 15 11 -3 12 4
48 15 79 10 31 18 57 17 57 -1 0 -9 -8 -17 -17z"/>
<path d="M1975 1754 c0 -21 5 -24 35 -24 40 0 93 -29 110 -59 16 -31 -29 -39
-79 -14 -34 17 -41 18 -46 6 -3 -8 -5 -16 -5 -17 0 -1 12 -3 26 -4 43 -3 94
-33 109 -63 20 -37 19 -39 -10 -39 -34 0 -81 25 -90 47 -7 17 -8 17 -15 -2
-13 -30 -12 -35 5 -35 31 0 95 -41 110 -70 9 -17 18 -30 22 -30 8 0 -5 172
-19 244 l-11 58 -37 -6 c-25 -4 -46 0 -71 13 l-34 18 0 -23z"/>
<path d="M2212 1696 c-6 -14 -23 -28 -37 -32 -19 -5 -25 -12 -25 -35 0 -16 5
-29 10 -29 6 0 10 6 10 14 0 8 16 28 35 45 26 23 34 35 27 47 -7 12 -10 11
-20 -10z"/>
<path d="M2251 1703 c0 -4 4 -17 9 -28 8 -19 9 -19 9 2 1 12 -3 25 -9 28 -5 3
-10 3 -9 -2z"/>
<path d="M2251 1634 c0 -11 3 -14 6 -6 3 7 2 16 -1 19 -3 4 -6 -2 -5 -13z"/>
<path d="M2227 1584 c-10 -13 -29 -27 -42 -30 -22 -5 -25 -11 -24 -53 l1 -46
9 33 c7 24 24 42 59 64 49 30 65 46 36 35 -8 -3 -16 0 -18 8 -2 9 -9 5 -21
-11z"/>
<path d="M2 1580 c0 -14 2 -19 5 -12 2 6 2 18 0 25 -3 6 -5 1 -5 -13z"/>
<path d="M44 1545 c-4 -14 -4 -29 0 -32 3 -4 6 3 6 13 0 11 5 25 12 32 9 9 9
12 0 12 -6 0 -14 -11 -18 -25z"/>
<path d="M10 1501 c0 -25 6 -27 13 -6 4 8 2 17 -3 20 -6 4 -10 -3 -10 -14z"/>
<path d="M2006 1474 c-4 -14 -4 -41 0 -60 4 -22 2 -34 -5 -34 -6 0 -11 -19
-11 -45 0 -25 -4 -45 -10 -45 -5 0 -10 -15 -10 -34 0 -19 -8 -42 -17 -51 -9
-10 -19 -33 -23 -54 -3 -20 -11 -35 -18 -34 -11 3 -14 -5 -26 -60 -4 -16 -12
-27 -19 -24 -7 2 -19 -14 -27 -37 -9 -23 -22 -41 -29 -41 -8 0 -22 -13 -31
-30 -10 -16 -23 -29 -29 -27 -6 1 -21 -14 -33 -33 -12 -22 -26 -34 -34 -31 -8
3 -25 -10 -40 -30 -15 -19 -32 -33 -38 -31 -6 2 -25 -8 -42 -23 -73 -63 -260
-113 -424 -113 -124 0 -207 15 -323 59 -38 15 -77 35 -87 46 -10 11 -24 18
-32 15 -8 -4 -7 -6 5 -6 11 -1 20 -12 23 -30 4 -17 12 -32 20 -35 9 -4 14 -22
14 -55 0 -39 4 -53 19 -61 28 -14 29 -13 33 21 4 41 31 60 54 38 11 -11 12
-19 5 -23 -6 -4 -11 0 -11 9 0 28 -35 13 -38 -16 -2 -18 8 -39 32 -68 26 -31
36 -53 36 -77 0 -63 -66 -97 -104 -55 -19 21 -18 52 2 59 9 3 11 -3 7 -21 -5
-19 -2 -28 12 -35 26 -14 61 3 69 33 14 58 -49 126 -85 90 -14 -14 -14 -17 -1
-25 8 -5 11 -12 8 -15 -11 -11 -28 5 -28 25 0 10 5 22 12 26 7 5 5 11 -7 21
-26 18 -42 16 -72 -7 -16 -12 -41 -20 -64 -20 -22 0 -39 -1 -39 -2 0 -2 11
-25 25 -52 15 -29 25 -41 25 -30 0 11 -7 30 -16 42 -16 23 -16 23 17 20 30 -3
37 -10 71 -73 50 -92 137 -176 213 -204 131 -49 279 -49 410 0 76 28 163 112
213 204 34 63 41 70 71 73 33 3 33 3 17 -20 -9 -12 -16 -32 -16 -43 1 -14 5
-11 15 13 36 82 120 150 169 138 36 -9 40 -37 20 -135 -17 -85 -17 -88 4 -165
22 -83 19 -115 -15 -135 -23 -13 -8 -14 17 -1 29 16 32 55 9 139 -21 76 -21
81 -5 151 19 84 20 126 5 135 -6 4 -8 13 -5 21 3 7 1 16 -5 19 -5 4 -7 11 -4
16 4 5 -2 9 -12 9 -10 0 -31 9 -48 20 -27 18 -31 18 -53 4 -13 -9 -26 -14 -28
-11 -7 7 46 38 55 33 4 -3 17 1 27 9 32 24 123 13 145 -18 4 -5 10 -3 15 4 4
7 3 14 -4 17 -7 2 -10 8 -6 13 3 5 -6 9 -21 9 -14 0 -37 7 -51 16 -24 16 -26
16 -52 -10 -16 -14 -32 -26 -37 -26 -5 0 23 30 63 66 l72 65 -25 25 c-14 14
-28 36 -31 51 -8 30 6 94 21 95 19 1 46 -67 43 -109 -4 -48 1 -47 43 12 18 25
34 43 37 40 6 -5 -33 -58 -102 -139 -43 -50 -46 -56 -18 -36 30 22 36 23 92
14 33 -6 60 -6 60 -2 0 4 -5 8 -11 8 -5 0 -7 5 -4 10 4 6 -7 10 -27 10 -18 0
-40 5 -48 10 -23 16 31 60 73 60 47 0 78 -11 70 -24 -4 -6 1 -5 11 3 15 13 16
15 1 23 -8 5 -13 14 -9 19 3 6 -4 7 -20 3 -14 -3 -37 -3 -51 0 -24 6 -24 7 -9
30 18 28 62 46 112 46 28 0 33 -3 28 -17 -5 -15 -3 -14 9 2 15 18 15 20 0 23
-8 2 -13 7 -11 11 3 4 -19 7 -47 6 -46 0 -54 -3 -71 -28 -35 -52 -27 -20 13
54 42 76 49 95 31 84 -6 -4 -26 9 -45 28 -30 30 -35 41 -35 83 l0 49 36 -36
c19 -19 41 -53 49 -74 l13 -39 20 64 c33 109 36 130 17 130 -47 0 -105 64
-105 115 0 28 82 -23 100 -62 21 -45 30 -41 30 12 0 44 -1 45 -31 45 -21 0
-40 10 -61 30 -16 17 -31 30 -33 30 -1 0 -6 -12 -9 -26z m78 -175 c22 -36 21
-69 -1 -69 -39 1 -83 58 -83 107 l0 33 34 -22 c19 -13 42 -35 50 -49z m-94
-151 c21 -29 30 -53 30 -80 0 -41 -2 -43 -31 -28 -37 20 -60 91 -43 134 9 22
10 21 44 -26z m-45 -85 c27 -40 34 -106 13 -119 -6 -4 -21 4 -35 20 -17 20
-23 39 -23 75 0 41 5 61 16 61 2 0 15 -17 29 -37z m-111 -174 c9 -29 10 -55 4
-76 -10 -38 -14 -39 -40 -16 -21 19 -25 88 -6 128 14 31 25 22 42 -36z m-65
-105 c1 -18 -7 -42 -18 -55 l-18 -23 -18 27 c-20 32 -16 84 11 125 l17 26 13
-34 c7 -19 13 -49 13 -66z m-80 -42 c1 -35 -23 -92 -39 -92 -14 0 -30 35 -30
65 0 29 14 60 39 88 15 18 16 18 22 -5 4 -12 7 -38 8 -56z m-89 -36 c0 -44 -5
-60 -25 -83 -21 -24 -26 -26 -35 -13 -17 24 -5 98 21 126 12 13 26 24 31 24 4
0 8 -24 8 -54z m200 -77 l35 -18 -30 -1 c-17 0 -40 -7 -52 -15 -23 -16 -47
-12 -78 15 -19 16 -24 15 -104 -22 -61 -29 -80 -43 -72 -51 6 -6 11 -19 11
-28 0 -20 -18 -35 -28 -24 -3 3 0 10 8 15 13 8 13 11 -1 25 -36 36 -99 -32
-85 -90 8 -30 43 -47 69 -33 14 7 17 16 12 35 -4 18 -2 24 7 21 20 -7 21 -38
2 -59 -38 -42 -104 -8 -104 55 0 24 10 46 36 77 24 29 34 50 32 68 -3 29 -38
44 -38 16 0 -9 -5 -13 -11 -9 -7 4 -6 12 5 23 23 22 50 3 54 -38 2 -17 6 -31
10 -31 4 0 50 21 102 48 105 52 152 57 220 21z m-135 -43 c19 -8 35 -19 35
-23 0 -33 -70 -44 -108 -17 -28 19 -28 28 1 42 30 14 32 14 72 -2z m-842 -254
c53 -54 144 -100 222 -111 47 -7 52 -9 23 -10 -55 -2 -158 36 -213 77 -50 38
-135 153 -135 181 0 9 14 -9 31 -39 16 -30 49 -74 72 -98z m716 91 c-40 -66
-80 -113 -123 -143 -54 -36 -154 -70 -203 -69 -31 1 -27 3 21 10 122 18 237
98 293 204 15 30 29 50 31 45 2 -6 -7 -27 -19 -47z m-381 -220 c-10 -2 -26 -2
-35 0 -10 3 -2 5 17 5 19 0 27 -2 18 -5z"/>
<path d="M1670 640 c-9 -6 -10 -10 -3 -10 6 0 15 5 18 10 8 12 4 12 -15 0z"/>
<path d="M2221 1459 c-13 -10 -31 -19 -41 -19 -18 0 -30 -26 -30 -65 0 -17 2
-17 13 5 7 14 35 36 64 50 29 14 52 29 53 33 0 5 -5 5 -11 1 -6 -3 -14 -2 -18
4 -4 6 -15 3 -30 -9z"/>
<path d="M2215 1344 c-11 -9 -32 -14 -47 -11 -20 2 -28 -1 -28 -12 0 -9 -3
-27 -7 -39 l-6 -24 26 26 c14 14 46 30 71 37 25 6 46 16 46 21 0 5 -5 6 -11 2
-6 -3 -14 -2 -18 4 -4 7 -13 5 -26 -4z"/>
<path d="M2196 1234 c-11 -8 -33 -14 -48 -14 -21 0 -31 -6 -38 -26 -14 -36
-13 -37 19 -13 17 12 45 21 70 22 26 1 41 7 41 15 0 7 -4 11 -9 7 -5 -3 -11 1
-13 9 -3 13 -6 13 -22 0z"/>
<path d="M2072 1099 c-20 -49 -20 -51 -2 -34 23 21 112 38 121 23 3 -5 9 -3
12 6 4 10 1 16 -9 16 -10 0 -14 6 -10 15 5 14 4 14 -16 0 -13 -8 -35 -15 -51
-15 -24 0 -27 3 -22 20 12 38 -1 20 -23 -31z"/>
<path d="M370 1035 c-7 -8 -9 -22 -6 -32 6 -15 9 -15 28 4 11 12 17 26 14 32
-10 15 -21 14 -36 -4z"/>
<path d="M406 951 c-4 -5 3 -7 14 -4 23 6 26 13 6 13 -8 0 -17 -4 -20 -9z"/>
<path d="M477 923 c-21 -24 -29 -62 -19 -97 l8 -30 14 35 c7 19 20 40 28 46
14 11 14 15 -1 31 -10 10 -14 22 -10 25 3 4 4 7 1 7 -3 0 -12 -8 -21 -17z"/>
<path d="M464 505 c-8 -21 14 -80 38 -101 l21 -19 -21 30 c-12 17 -24 42 -28
58 -10 44 23 35 42 -13 9 -22 30 -70 48 -107 l32 -67 -30 -29 c-27 -26 -31
-27 -34 -11 -8 49 -43 86 -58 62 -4 -7 -3 -8 4 -4 6 4 18 -4 27 -18 13 -20 14
-32 5 -65 -6 -22 -15 -43 -20 -46 -6 -3 -10 -13 -10 -22 0 -9 10 -2 23 18 31
45 83 99 94 99 6 0 25 -16 43 -37 l33 -36 -22 -19 c-13 -10 -18 -18 -13 -18 6
0 14 5 17 10 10 16 25 12 25 -7 1 -10 8 -29 16 -43 9 -14 13 -17 10 -7 -23 74
-23 74 30 28 108 -95 227 -135 404 -135 177 0 296 40 404 135 53 46 53 46 30
-28 -3 -10 1 -7 10 7 8 14 15 33 16 43 0 19 15 23 25 7 3 -6 11 -10 17 -10 5
0 0 8 -13 18 l-22 19 33 36 c18 21 37 37 43 37 11 0 63 -54 94 -99 13 -20 23
-27 23 -18 0 9 -4 19 -10 22 -5 3 -14 24 -20 46 -9 33 -8 45 5 65 9 14 21 22
27 18 7 -4 8 -3 4 4 -15 24 -50 -13 -58 -62 -3 -16 -7 -15 -34 11 l-30 29 32
67 c18 37 39 85 48 107 19 48 52 57 42 13 -4 -16 -16 -41 -28 -58 l-21 -30 21
19 c28 24 50 92 35 107 -13 13 -53 -5 -53 -24 0 -31 -103 -217 -149 -268 -62
-70 -167 -142 -245 -169 -136 -48 -316 -48 -452 0 -115 40 -248 150 -311 257
-14 24 -40 78 -59 120 -38 88 -66 115 -80 78z"/>
<path d="M1547 373 c-17 -16 -3 -40 35 -61 43 -23 65 -22 32 2 -10 8 -16 18
-11 22 4 4 13 2 19 -4 14 -14 28 -16 28 -4 0 8 -74 52 -88 52 -5 0 -12 -3 -15
-7z m38 -24 c12 -19 -5 -23 -22 -6 -16 16 -16 17 -1 17 9 0 20 -5 23 -11z"/>
<path d="M630 340 c0 -31 23 -34 72 -9 23 12 37 24 30 26 -7 3 -28 -5 -48 -16
-43 -26 -47 -26 -39 -1 4 11 2 20 -4 20 -6 0 -11 -9 -11 -20z"/>
<path d="M731 276 c-29 -30 -32 -38 -21 -51 18 -22 33 -19 65 15 23 24 27 34
19 47 -17 27 -28 25 -63 -11z m29 -21 c-18 -19 -36 -32 -39 -30 -6 7 50 65 63
65 5 0 -5 -16 -24 -35z"/>
<path d="M1475 280 c-14 -15 -15 -19 -4 -15 9 3 27 -7 44 -25 16 -16 33 -30
39 -30 5 0 -7 17 -27 38 -21 21 -34 41 -31 45 4 4 5 7 2 7 -3 0 -13 -9 -23
-20z"/>
<path d="M842 228 c-5 -7 -17 -27 -26 -45 -15 -31 -15 -33 5 -43 17 -9 23 -8
35 7 7 10 14 21 14 26 0 13 -12 8 -26 -10 -7 -10 -15 -15 -19 -12 -9 9 35 80
46 73 5 -3 7 -10 4 -15 -4 -5 -1 -9 4 -9 17 0 13 27 -5 34 -21 8 -20 8 -32 -6z"/>
<path d="M1396 227 c-16 -12 -15 -15 6 -55 25 -45 44 -57 32 -19 -7 22 -6 22
15 3 11 -11 21 -14 21 -9 0 6 -6 16 -14 23 -8 6 -13 17 -10 24 3 7 -4 20 -14
29 -15 14 -21 15 -36 4z m31 -22 c8 -22 -6 -33 -17 -15 -13 20 -12 30 0 30 6
0 13 -7 17 -15z"/>
<path d="M603 220 c-13 -5 -23 -12 -23 -15 0 -9 16 -5 36 10 22 16 19 18 -13
5z"/>
<path d="M1664 215 c22 -17 40 -20 32 -6 -3 5 -16 11 -28 14 -22 6 -22 5 -4
-8z"/>
<path d="M540 176 c0 -8 -8 -20 -17 -25 -10 -6 -13 -11 -7 -11 18 0 47 37 35
45 -6 3 -11 -1 -11 -9z"/>
<path d="M1285 181 c-8 -13 15 -101 26 -101 5 0 7 11 3 25 -8 30 12 34 21 4
13 -41 18 -9 5 36 -9 32 -18 45 -31 45 -10 0 -20 -4 -24 -9z m35 -27 c0 -8 -4
-14 -10 -14 -5 0 -10 9 -10 21 0 11 5 17 10 14 6 -3 10 -13 10 -21z"/>
<path d="M1727 183 c-8 -12 30 -49 40 -40 3 4 1 7 -6 7 -6 0 -15 10 -20 22 -4
12 -11 17 -14 11z"/>
<path d="M969 143 c-17 -54 -19 -56 -35 -36 -12 16 -13 16 -14 2 0 -18 26 -33
40 -24 12 8 40 95 30 95 -5 0 -14 -17 -21 -37z"/>
<path d="M1057 163 c-8 -13 -12 -92 -5 -99 4 -3 10 17 14 45 4 28 11 51 16 51
5 0 6 -22 2 -50 -5 -34 -3 -50 5 -50 6 0 12 18 13 40 0 22 1 46 2 53 1 14 -39
23 -47 10z"/>
<path d="M1205 140 c8 -38 -7 -39 -22 -2 -11 26 -11 26 -12 -13 0 -22 4 -47 9
-55 8 -12 10 -11 10 8 0 12 5 22 10 22 6 0 10 -9 10 -20 0 -11 5 -20 11 -20 8
0 9 11 5 31 -3 17 -6 42 -6 55 0 13 -5 24 -11 24 -7 0 -8 -11 -4 -30z"/>
<path d="M596 152 c-3 -5 1 -9 9 -9 8 0 12 4 9 9 -3 4 -7 8 -9 8 -2 0 -6 -4
-9 -8z"/>
<path d="M1666 152 c-3 -5 1 -9 9 -9 8 0 12 4 9 9 -3 4 -7 8 -9 8 -2 0 -6 -4
-9 -8z"/>
<path d="M504 101 c0 -21 7 -36 16 -38 10 -3 11 -2 3 4 -6 4 -13 22 -16 38 -4
27 -5 27 -3 -4z"/>
<path d="M1771 103 c0 -17 -7 -34 -13 -36 -10 -4 -10 -6 0 -6 16 -1 25 21 19
51 -3 18 -5 16 -6 -9z"/>
<path d="M730 93 c8 -3 19 -11 23 -17 6 -7 7 -6 4 4 -2 8 -12 16 -23 17 -13 2
-15 1 -4 -4z"/>
<path d="M1525 89 c-4 -6 -4 -13 -1 -16 3 -4 6 -1 6 5 0 6 8 13 18 15 15 4 15
5 0 6 -9 0 -20 -4 -23 -10z"/>
<path d="M588 73 c7 -3 16 -2 19 1 4 3 -2 6 -13 5 -11 0 -14 -3 -6 -6z"/>
<path d="M1678 73 c7 -3 16 -2 19 1 4 3 -2 6 -13 5 -11 0 -14 -3 -6 -6z"/>
<path d="M650 61 c0 -6 4 -13 10 -16 6 -3 7 1 4 9 -7 18 -14 21 -14 7z"/>
<path d="M1616 53 c-6 -14 -5 -15 5 -6 7 7 10 15 7 18 -3 3 -9 -2 -12 -12z"/>
<path d="M690 50 c8 -5 22 -9 30 -9 10 0 8 3 -5 9 -27 12 -43 12 -25 0z"/>
<path d="M1565 50 c-13 -6 -15 -9 -5 -9 8 0 22 4 30 9 18 12 2 12 -25 0z"/>
</g>
</svg>
